<svg width="235" height="68" viewBox="0 0 235 68" fill="none" xmlns="http://www.w3.org/2000/svg">
<rect width="70.9772" height="57.0535" transform="translate(0 5.47266)" fill="#4218B9"/>
<path d="M12.3542 44V24.6919H18.2826C21.1471 24.6919 23.5492 25.6166 25.4891 27.4658C27.429 29.315 28.3989 31.6084 28.3989 34.346C28.3989 37.0835 27.429 39.3769 25.4891 41.2262C23.5492 43.0754 21.1471 44 18.2826 44H12.3542ZM15.5359 41.0358H18.2826C20.3131 41.0358 21.9629 40.4013 23.232 39.1322C24.5192 37.8631 25.1628 36.2677 25.1628 34.346C25.1628 32.4242 24.5192 30.8288 23.232 29.5598C21.9629 28.2907 20.3131 27.6561 18.2826 27.6561H15.5359V41.0358ZM37.5566 44.2719C35.5261 44.2719 33.8582 43.6102 32.5529 42.2868C31.2475 40.9452 30.5949 39.25 30.5949 37.2014C30.5949 35.1527 31.2385 33.4667 32.5257 32.1432C33.8129 30.8016 35.4989 30.1308 37.5838 30.1308C39.6869 30.1308 41.382 30.8651 42.6692 32.3336C43.9564 33.784 44.5275 35.6513 44.3825 37.9356H33.5591C33.5953 38.9872 33.9942 39.8664 34.7556 40.5735C35.5171 41.2806 36.487 41.6341 37.6654 41.6341C39.3334 41.6341 40.4755 40.9995 41.0919 39.7305H44.2193C43.8023 41.0539 43.0046 42.1417 41.8262 42.9938C40.6477 43.8459 39.2246 44.2719 37.5566 44.2719ZM37.5023 32.6327C36.5233 32.6327 35.6802 32.9137 34.9732 33.4758C34.2842 34.0196 33.8401 34.7992 33.6406 35.8145H41.1735C40.956 34.763 40.5118 33.9743 39.841 33.4486C39.1702 32.9047 38.3906 32.6327 37.5023 32.6327ZM51.378 44L45.2321 30.4028H48.5498L52.6833 39.948L56.8441 30.4028H60.189L54.0159 44H51.378Z" fill="white"/>
<path d="M96.0676 27L86.6855 17.9714V27H83.531V7.69195H86.6855V16.0134L94.4359 7.69195H98.4607L89.8673 16.9381L100.364 27H96.0676ZM111.856 25.2324C110.496 26.5921 108.81 27.2719 106.798 27.2719C104.786 27.2719 103.09 26.5921 101.713 25.2324C100.353 23.8545 99.673 22.1775 99.673 20.2014C99.673 18.2253 100.353 16.5573 101.713 15.1976C103.09 13.8198 104.786 13.1308 106.798 13.1308C108.81 13.1308 110.496 13.8198 111.856 15.1976C113.234 16.5573 113.923 18.2253 113.923 20.2014C113.923 22.1775 113.234 23.8545 111.856 25.2324ZM106.798 24.4981C107.976 24.4981 108.946 24.0902 109.708 23.2744C110.487 22.4404 110.877 21.4161 110.877 20.2014C110.877 18.9867 110.487 17.9714 109.708 17.1556C108.946 16.3216 107.976 15.9047 106.798 15.9047C105.601 15.9047 104.613 16.3216 103.834 17.1556C103.072 17.9714 102.692 18.9867 102.692 20.2014C102.692 21.4161 103.072 22.4404 103.834 23.2744C104.613 24.0902 105.601 24.4981 106.798 24.4981ZM121.718 27.2719C120.104 27.2719 118.744 26.8731 117.639 26.0754C116.551 25.2777 115.971 24.208 115.898 22.8664H118.998C119.216 24.208 120.149 24.8788 121.799 24.8788C122.47 24.8788 123.005 24.761 123.404 24.5253C123.803 24.2715 124.002 23.9089 124.002 23.4375C124.002 22.9662 123.848 22.5945 123.54 22.3226C123.232 22.0506 122.715 21.824 121.99 21.6427L119.76 21.0444C117.439 20.428 116.279 19.0592 116.279 16.9381C116.279 15.7959 116.741 14.8803 117.666 14.1914C118.59 13.4844 119.814 13.1308 121.337 13.1308C122.805 13.1308 124.011 13.5025 124.954 14.2458C125.897 14.9891 126.422 15.9772 126.531 17.21H123.54C123.25 16.086 122.506 15.5239 121.31 15.5239C120.711 15.5239 120.231 15.6509 119.868 15.9047C119.506 16.1404 119.325 16.4758 119.325 16.9109C119.325 17.6904 119.932 18.2343 121.147 18.5425L123.431 19.1408C125.842 19.7572 127.048 21.126 127.048 23.2472C127.048 24.5344 126.549 25.5315 125.552 26.2386C124.573 26.9275 123.295 27.2719 121.718 27.2719ZM135.713 27.136C134.335 27.136 133.211 26.7553 132.341 25.9938C131.489 25.2142 131.063 24.0902 131.063 22.6217V16.0678H128.234V13.4028H131.063V9.62275H134.054V13.4028H137.943V16.0678H134.054V22.1322C134.054 22.9662 134.235 23.5644 134.598 23.927C134.96 24.2715 135.541 24.4437 136.338 24.4437C136.991 24.4437 137.526 24.3531 137.943 24.1718V26.8368C137.29 27.0363 136.547 27.136 135.713 27.136ZM145.131 32.6836H141.84L144.75 26.2658L138.903 13.4028H142.194L146.355 23.0296L150.543 13.4028H153.86L145.131 32.6836ZM161.2 27.2719C159.351 27.2719 157.792 26.583 156.523 25.2052C155.272 23.8273 154.646 22.1594 154.646 20.2014C154.646 18.2434 155.272 16.5755 156.523 15.1976C157.792 13.8198 159.351 13.1308 161.2 13.1308C162.125 13.1308 162.977 13.3393 163.756 13.7563C164.536 14.1552 165.134 14.6447 165.551 15.2248V13.4028H168.542V27H165.551V25.178C165.134 25.7581 164.536 26.2567 163.756 26.6737C162.977 27.0725 162.125 27.2719 161.2 27.2719ZM158.834 23.3016C159.596 24.1355 160.565 24.5525 161.744 24.5525C162.922 24.5525 163.892 24.1355 164.654 23.3016C165.415 22.4676 165.796 21.4342 165.796 20.2014C165.796 18.9686 165.415 17.9352 164.654 17.1012C163.892 16.2673 162.922 15.8503 161.744 15.8503C160.565 15.8503 159.596 16.2673 158.834 17.1012C158.073 17.9352 157.692 18.9686 157.692 20.2014C157.692 21.4342 158.073 22.4676 158.834 23.3016ZM172.595 27V13.4028H175.586V15.252C176.439 13.8379 177.816 13.1308 179.72 13.1308C181.297 13.1308 182.557 13.6475 183.5 14.6809C184.443 15.7143 184.914 17.0922 184.914 18.8145V27H181.923V19.304C181.923 18.2162 181.669 17.3732 181.161 16.7749C180.654 16.1585 179.965 15.8503 179.095 15.8503C178.061 15.8503 177.218 16.2401 176.565 17.0196C175.913 17.7992 175.586 18.8961 175.586 20.3102V27H172.595ZM194.484 27.136C193.106 27.136 191.982 26.7553 191.112 25.9938C190.259 25.2142 189.833 24.0902 189.833 22.6217V16.0678H187.005V13.4028H189.833V9.62275H192.825V13.4028H196.714V16.0678H192.825V22.1322C192.825 22.9662 193.006 23.5644 193.369 23.927C193.731 24.2715 194.311 24.4437 195.109 24.4437C195.762 24.4437 196.297 24.3531 196.714 24.1718V26.8368C196.061 27.0363 195.318 27.136 194.484 27.136ZM203.902 32.6836H200.611L203.521 26.2658L197.674 13.4028H200.965L205.125 23.0296L209.313 13.4028H212.631L203.902 32.6836ZM214.715 27V13.4028H217.706V15.252C218.558 13.8379 219.936 13.1308 221.84 13.1308C223.417 13.1308 224.677 13.6475 225.62 14.6809C226.562 15.7143 227.034 17.0922 227.034 18.8145V27H224.042V19.304C224.042 18.2162 223.788 17.3732 223.281 16.7749C222.773 16.1585 222.084 15.8503 221.214 15.8503C220.181 15.8503 219.338 16.2401 218.685 17.0196C218.032 17.7992 217.706 18.8961 217.706 20.3102V27H214.715ZM83.531 61V41.6919H89.4593C92.3238 41.6919 94.726 42.6166 96.6659 44.4658C98.6057 46.315 99.5757 48.6084 99.5757 51.346C99.5757 54.0835 98.6057 56.3769 96.6659 58.2262C94.726 60.0754 92.3238 61 89.4593 61H83.531ZM86.7127 58.0358H89.4593C91.4899 58.0358 93.1397 57.4013 94.4087 56.1322C95.6959 54.8631 96.3395 53.2677 96.3395 51.346C96.3395 49.4242 95.6959 47.8288 94.4087 46.5598C93.1397 45.2907 91.4899 44.6561 89.4593 44.6561H86.7127V58.0358ZM107.075 66.6836H103.784L106.694 60.2658L100.847 47.4028H104.138L108.298 57.0296L112.486 47.4028H115.804L107.075 66.6836ZM123.144 61.2719C121.294 61.2719 119.735 60.583 118.466 59.2052C117.215 57.8273 116.59 56.1594 116.59 54.2014C116.59 52.2434 117.215 50.5755 118.466 49.1976C119.735 47.8198 121.294 47.1308 123.144 47.1308C124.068 47.1308 124.92 47.3393 125.7 47.7563C126.48 48.1552 127.078 48.6447 127.495 49.2248V47.4028H130.486V61H127.495V59.178C127.078 59.7581 126.48 60.2567 125.7 60.6737C124.92 61.0725 124.068 61.2719 123.144 61.2719ZM120.778 57.3016C121.539 58.1355 122.509 58.5525 123.688 58.5525C124.866 58.5525 125.836 58.1355 126.597 57.3016C127.359 56.4676 127.74 55.4342 127.74 54.2014C127.74 52.9686 127.359 51.9352 126.597 51.1012C125.836 50.2673 124.866 49.8503 123.688 49.8503C122.509 49.8503 121.539 50.2673 120.778 51.1012C120.016 51.9352 119.636 52.9686 119.636 54.2014C119.636 55.4342 120.016 56.4676 120.778 57.3016ZM140.685 61.2719C138.636 61.2719 136.932 60.5921 135.572 59.2324C134.231 57.8545 133.56 56.1775 133.56 54.2014C133.56 52.2253 134.231 50.5573 135.572 49.1976C136.932 47.8198 138.636 47.1308 140.685 47.1308C142.443 47.1308 143.939 47.6203 145.172 48.5993C146.423 49.5783 147.23 50.8383 147.592 52.3794H144.438C144.166 51.6179 143.694 51.0106 143.023 50.5573C142.371 50.086 141.591 49.8503 140.685 49.8503C139.488 49.8503 138.509 50.2582 137.748 51.074C136.986 51.8899 136.606 52.9323 136.606 54.2014C136.606 55.4705 136.986 56.5129 137.748 57.3288C138.509 58.1446 139.488 58.5525 140.685 58.5525C141.591 58.5525 142.371 58.3259 143.023 57.8726C143.694 57.4013 144.166 56.7849 144.438 56.0234H147.592C147.23 57.5644 146.423 58.8244 145.172 59.8034C143.939 60.7824 142.443 61.2719 140.685 61.2719ZM153.411 61H150.42V40.6042H153.411V49.252C154.263 47.8379 155.641 47.1308 157.545 47.1308C159.122 47.1308 160.382 47.6475 161.325 48.6809C162.268 49.7143 162.739 51.0922 162.739 52.8145V61H159.748V53.304C159.748 52.2162 159.494 51.3732 158.986 50.7749C158.479 50.1585 157.79 49.8503 156.919 49.8503C155.886 49.8503 155.043 50.2401 154.39 51.0196C153.738 51.7992 153.411 52.8961 153.411 54.3102V61ZM172.577 61.2719C170.546 61.2719 168.878 60.6102 167.573 59.2868C166.267 57.9452 165.615 56.25 165.615 54.2014C165.615 52.1527 166.258 50.4667 167.546 49.1432C168.833 47.8016 170.519 47.1308 172.604 47.1308C174.707 47.1308 176.402 47.8651 177.689 49.3336C178.976 50.784 179.547 52.6513 179.402 54.9356H168.579C168.615 55.9872 169.014 56.8664 169.776 57.5735C170.537 58.2806 171.507 58.6341 172.685 58.6341C174.353 58.6341 175.495 57.9995 176.112 56.7305H179.239C178.822 58.0539 178.025 59.1417 176.846 59.9938C175.668 60.8459 174.245 61.2719 172.577 61.2719ZM172.522 49.6327C171.543 49.6327 170.7 49.9137 169.993 50.4758C169.304 51.0196 168.86 51.7992 168.661 52.8145H176.193C175.976 51.763 175.532 50.9743 174.861 50.4486C174.19 49.9047 173.411 49.6327 172.522 49.6327ZM182.474 61V47.4028H185.466V49.252C186.318 47.8379 187.696 47.1308 189.599 47.1308C191.177 47.1308 192.437 47.6475 193.379 48.6809C194.322 49.7143 194.793 51.0922 194.793 52.8145V61H191.802V53.304C191.802 52.2162 191.548 51.3732 191.041 50.7749C190.533 50.1585 189.844 49.8503 188.974 49.8503C187.94 49.8503 187.097 50.2401 186.445 51.0196C185.792 51.7992 185.466 52.8961 185.466 54.3102V61H182.474ZM208.112 61L201.612 54.4461V61H198.621V40.6042H201.612V52.5697L206.807 47.4028H210.587L204.522 53.4671L211.946 61H208.112ZM223.821 59.2324C222.461 60.5921 220.775 61.2719 218.763 61.2719C216.75 61.2719 215.055 60.5921 213.677 59.2324C212.317 57.8545 211.638 56.1775 211.638 54.2014C211.638 52.2253 212.317 50.5573 213.677 49.1976C215.055 47.8198 216.75 47.1308 218.763 47.1308C220.775 47.1308 222.461 47.8198 223.821 49.1976C225.199 50.5573 225.887 52.2253 225.887 54.2014C225.887 56.1775 225.199 57.8545 223.821 59.2324ZM218.763 58.4981C219.941 58.4981 220.911 58.0902 221.672 57.2744C222.452 56.4404 222.842 55.4161 222.842 54.2014C222.842 52.9867 222.452 51.9714 221.672 51.1556C220.911 50.3216 219.941 49.9047 218.763 49.9047C217.566 49.9047 216.578 50.3216 215.798 51.1556C215.037 51.9714 214.656 52.9867 214.656 54.2014C214.656 55.4161 215.037 56.4404 215.798 57.2744C216.578 58.0902 217.566 58.4981 218.763 58.4981Z" fill="white"/>
</svg>
