<?xml version="1.0" encoding="UTF-8"?> <svg xmlns="http://www.w3.org/2000/svg" width="91" height="90" viewBox="0 0 91 90" fill="none"><path d="M42.1849 0.162141C39.4762 0.360313 35.9058 1.00888 33.1092 1.83759C17.2444 6.50364 4.91485 20.1595 1.6258 36.6798C-0.766236 48.7323 1.48509 61.091 7.85213 71.0536C12.3372 78.0797 18.0535 83.4124 24.8778 87.0155C27.3578 88.3306 30.8755 89.7899 31.966 89.97C32.9861 90.1322 33.8831 89.6278 34.3052 88.6549C34.6218 87.9343 34.6218 87.574 34.5163 83.5024L34.3932 79.1246L32.8806 79.3769C31.1745 79.6471 28.3779 79.539 26.0914 79.1427C24.2446 78.8004 22.3802 77.8635 21.2018 76.6385C20.2696 75.6837 20.0234 75.2693 18.8098 72.5129C17.7017 70.0087 16.4353 68.3513 14.7292 67.1623C13.5684 66.3335 12.601 65.2526 12.6714 64.8563C12.7769 64.3158 13.5156 64.0816 14.7996 64.1717C17.2796 64.3518 19.8651 66.2074 21.7119 69.108C22.9782 71.0897 24.227 72.3327 25.7572 73.1074C26.8477 73.6659 27.1467 73.738 28.7297 73.792C30.5413 73.8641 32.3705 73.5758 33.8479 72.9993C34.569 72.7111 34.6042 72.675 34.8681 71.468C35.2022 69.9187 35.853 68.5134 36.7324 67.3604L37.4184 66.4777L35.9761 66.2795C31.3328 65.5949 28.0261 64.4419 24.9481 62.4061C20.9204 59.7398 18.5283 55.5782 17.3675 49.2367C17.0157 47.273 16.963 42.2286 17.2796 40.373C17.7896 37.3644 19.0032 34.626 20.7973 32.3561L21.5887 31.3652L21.237 30.2482C20.3224 27.2216 20.4983 23.5464 21.7294 19.9073C22.046 19.0065 22.1164 18.9705 23.5411 19.0425C25.6165 19.1506 30.0664 20.9882 33.0916 22.9699L34.3404 23.7986L35.3254 23.6005C35.853 23.4924 36.8556 23.2762 37.5591 23.1141C42.3256 22.0691 49.0796 22.0691 53.846 23.1141C54.5496 23.2762 55.5521 23.4924 56.0798 23.6005L57.0471 23.7806L58.7181 22.7357C62.6931 20.2676 67.2309 18.5921 68.8314 19.0245C69.2887 19.1506 69.4119 19.3308 69.7636 20.3757C70.5199 22.6276 70.731 24.159 70.6431 26.6992C70.5727 28.4106 70.4496 29.3655 70.1858 30.2122L69.8164 31.3652L70.5903 32.3381C72.1557 34.3018 73.3165 36.7339 73.9673 39.3461C74.3542 40.9495 74.407 46.8587 74.0376 49.1466C73.4748 52.7137 72.0325 56.461 70.3441 58.7309C67.442 62.6403 62.183 65.3247 55.517 66.2615L53.9868 66.4777L54.6727 67.3604C55.4994 68.4414 56.1677 69.8286 56.5371 71.3419C56.7833 72.2787 56.8361 73.81 56.8889 80.4038C56.9768 89.2314 56.9768 89.2134 58.1552 89.7899C58.9643 90.1682 59.6151 90.0601 62.183 89.0332C75.1633 83.9168 85.3998 72.2427 89.1462 58.3526C91.6261 49.1106 91.0985 38.3913 87.7391 29.5096C84.7139 21.5827 79.3845 14.3404 72.824 9.29606C65.7007 3.83733 57.61 0.756656 48.7806 0.162141C45.7026 -0.0540469 45.4036 -0.0540469 42.1849 0.162141Z" fill="white"></path></svg> 