<?xml version="1.0" encoding="UTF-8"?> <svg xmlns="http://www.w3.org/2000/svg" width="90" height="90" viewBox="0 0 90 90" fill="none"><path d="M86.9554 42.5109L48.6877 4.24322L44.9797 0.535156L16.1727 29.3421L2.99999 42.5109C2.34202 43.1722 1.97266 44.0672 1.97266 45.0001C1.97266 45.933 2.34202 46.828 2.99999 47.4894L29.3177 73.8071L44.9797 89.4651L73.7827 60.6582L74.2313 60.2135L86.9554 47.5092C87.2851 47.1819 87.5469 46.7926 87.7254 46.3636C87.904 45.9347 87.996 45.4747 87.996 45.0101C87.996 44.5454 87.904 44.0854 87.7254 43.6565C87.5469 43.2276 87.2851 42.8382 86.9554 42.5109ZM44.9797 58.1491L31.8308 45.0001L44.9797 31.8512L58.1246 45.0001L44.9797 58.1491Z" fill="#2684FF"></path><path d="M44.9798 31.8509C40.8445 27.7166 38.5133 22.1137 38.4954 16.2662C38.4776 10.4186 40.7745 4.80164 44.8845 0.64209L16.1133 29.4014L31.7713 45.0594L44.9798 31.8509Z" fill="url(#paint0_linear_47_756)"></path><path d="M58.1604 44.9644L44.9797 58.149C49.1307 62.3011 51.4626 67.9319 51.4626 73.8031C51.4626 79.6742 49.1307 85.305 44.9797 89.4571L73.8304 60.6224L58.1604 44.9644Z" fill="url(#paint1_linear_47_756)"></path><defs><linearGradient id="paint0_linear_47_756" x1="42.6255" y1="18.5472" x2="24.2639" y2="36.9049" gradientUnits="userSpaceOnUse"><stop offset="0.18" stop-color="#0052CC"></stop><stop offset="1" stop-color="#2684FF"></stop></linearGradient><linearGradient id="paint1_linear_47_756" x1="47.4888" y1="71.294" x2="65.8148" y2="52.972" gradientUnits="userSpaceOnUse"><stop offset="0.18" stop-color="#0052CC"></stop><stop offset="1" stop-color="#2684FF"></stop></linearGradient></defs></svg> 