<?xml version="1.0" encoding="UTF-8"?> <svg xmlns="http://www.w3.org/2000/svg" width="90" height="90" viewBox="0 0 90 90" fill="none"><path fill-rule="evenodd" clip-rule="evenodd" d="M13.2955 68.3658V69.6243C13.2955 69.8197 13.2035 69.9176 13.0199 69.9176H7.62437C7.55177 69.9176 7.51466 69.9572 7.51466 70.0343V88.2836C7.51466 88.4787 7.42318 88.5768 7.2391 88.5768H5.83565C5.65205 88.5768 5.56009 88.4787 5.56009 88.2836V70.0343C5.56009 69.9572 5.5233 69.9176 5.45038 69.9176H0.275076C0.0914769 69.9176 0 69.8197 0 69.6243V68.3658C0 68.1704 0.0914769 68.0726 0.275076 68.0726H13.0199C13.2035 68.0726 13.2955 68.1704 13.2955 68.3658Z" fill="white"></path><path fill-rule="evenodd" clip-rule="evenodd" d="M25.5681 80.9755V81.8531C25.5681 82.0361 25.4758 82.1278 25.2914 82.1278H16.3635C16.2893 82.1278 16.2533 82.1649 16.2533 82.2376C16.2893 83.2436 16.3456 83.8936 16.4185 84.1858C16.6213 85.0092 17.0545 85.6589 17.7176 86.1347C18.3811 86.6105 19.2295 86.8482 20.2607 86.8482C21.0344 86.8482 21.7161 86.674 22.3064 86.3266C22.8957 85.9794 23.3572 85.486 23.689 84.8448C23.7991 84.6798 23.9274 84.6441 24.0758 84.7353L25.1532 85.3665C25.3008 85.4578 25.3376 85.5852 25.2644 85.7506C24.8033 86.6281 24.1118 87.3196 23.1907 87.8218C22.2691 88.3256 21.2103 88.5768 20.012 88.5768C18.7044 88.5588 17.6074 88.2474 16.7236 87.6445C15.8384 87.0406 15.2029 86.1995 14.8159 85.1196C14.4843 84.241 14.3181 82.979 14.3181 81.3317C14.3181 80.5635 14.3324 79.9369 14.3599 79.4522C14.3874 78.9676 14.4568 78.532 14.5677 78.1478C14.8804 76.9585 15.5115 76.0072 16.4602 75.2934C17.4098 74.5802 18.557 74.2239 19.9017 74.2239C21.578 74.2239 22.8678 74.6447 23.7706 75.4856C24.6736 76.3278 25.2364 77.5168 25.458 79.0537C25.5309 79.5661 25.5681 80.2073 25.5681 80.9755ZM17.6492 76.6247C17.0497 77.0916 16.6588 77.7193 16.4739 78.5055C16.3635 78.8896 16.2893 79.5114 16.2533 80.3713C16.2533 80.445 16.2893 80.4807 16.3635 80.4807H23.5225C23.5966 80.4807 23.6339 80.445 23.6339 80.3713C23.5966 79.5484 23.5406 78.9633 23.4674 78.6149C23.2649 77.7915 22.8544 77.1375 22.2367 76.6525C21.6193 76.1677 20.8411 75.9256 19.9017 75.9256C18.9989 75.9256 18.2479 76.159 17.6492 76.6247Z" fill="white"></path><path fill-rule="evenodd" clip-rule="evenodd" d="M29.2986 88.0767C28.4313 87.7428 27.7636 87.2967 27.2944 86.7412C26.8255 86.1843 26.5911 85.5638 26.5911 84.877V84.5431C26.5911 84.3584 26.6905 84.2659 26.8906 84.2659H28.327C28.5255 84.2659 28.6256 84.3584 28.6256 84.5431V84.7661C28.6256 85.3784 28.9698 85.9117 29.6577 86.3652C30.3467 86.8202 31.2087 87.0465 32.2455 87.0465C33.2831 87.0465 34.1205 86.8292 34.7595 86.3934C35.3979 85.9576 35.7165 85.4052 35.7165 84.7379C35.7165 84.2749 35.5522 83.8944 35.2219 83.5977C34.8935 83.3013 34.5051 83.0693 34.056 82.9017C33.6066 82.7354 32.9143 82.5227 31.9764 82.2625C30.859 81.9658 29.9423 81.6694 29.2241 81.3727C28.5062 81.0763 27.902 80.6634 27.414 80.1345C26.9246 79.6058 26.6814 78.9337 26.6814 78.1174C26.6814 76.9312 27.179 75.9855 28.1771 75.2814C29.1741 74.5762 30.4903 74.2239 32.1263 74.2239C33.2234 74.2239 34.195 74.3902 35.043 74.724C35.8907 75.0584 36.544 75.5167 37.0031 76.1016C37.4613 76.6857 37.691 77.3388 37.691 78.062V78.1461C37.691 78.3316 37.5915 78.4246 37.3915 78.4246H35.9854C35.7858 78.4246 35.6859 78.3316 35.6859 78.1461V78.062C35.6859 77.4319 35.3623 76.903 34.7148 76.4762C34.0658 76.0507 33.1931 75.837 32.0956 75.837C31.0793 75.837 30.2615 76.0269 29.6428 76.4073C29.0245 76.7878 28.7154 77.3121 28.7154 77.9785C28.7154 78.6101 29.0144 79.091 29.6125 79.4249C30.2111 79.7588 31.1389 80.0926 32.3951 80.4265C33.5522 80.7425 34.4893 81.0388 35.2075 81.3173C35.9257 81.5948 36.544 81.9984 37.0627 82.5271C37.5814 83.056 37.8411 83.7465 37.8411 84.5998C37.8411 85.8047 37.3319 86.7685 36.3141 87.4912C35.2978 88.2147 33.9513 88.5768 32.2759 88.5768C31.1585 88.5768 30.1664 88.4092 29.2986 88.0767Z" fill="white"></path><path fill-rule="evenodd" clip-rule="evenodd" d="M45.7207 75.5985H42.3092C42.2282 75.5985 42.1889 75.6372 42.1889 75.7139V84.26C42.1889 85.1863 42.4048 85.8385 42.8374 86.2156C43.2697 86.5917 43.9494 86.7801 44.8755 86.7801H45.6299C45.8312 86.7801 45.9321 86.8771 45.9321 87.0701V88.2573C45.9321 88.4505 45.8312 88.5473 45.6299 88.5473C45.3889 88.5659 45.0153 88.5766 44.5131 88.5766C43.063 88.5766 41.9661 88.315 41.2219 87.7941C40.4773 87.2732 40.1051 86.3073 40.1051 84.8969V75.7139C40.1051 75.6372 40.0644 75.5985 39.9848 75.5985H38.1417C37.9419 75.5985 37.8411 75.5017 37.8411 75.3085V74.1777C37.8411 73.9859 37.9419 73.8892 38.1417 73.8892H39.9848C40.0644 73.8892 40.1051 73.8505 40.1051 73.7723V70.4118C40.1051 70.2196 40.206 70.1229 40.4074 70.1229H41.8867C42.0879 70.1229 42.1889 70.2196 42.1889 70.4118V73.7723C42.1889 73.8505 42.2282 73.8892 42.3092 73.8892H45.7207C45.922 73.8892 46.0229 73.9859 46.0229 74.1777V75.3085C46.0229 75.5017 45.922 75.5985 45.7207 75.5985Z" fill="white"></path><path fill-rule="evenodd" clip-rule="evenodd" d="M58.9209 88.3138L55.141 79.877C55.1028 79.7998 55.0457 79.7603 54.9698 79.7603H51.534C51.4383 79.7603 51.3903 79.8092 51.3903 79.9067V88.2252C51.3903 88.3232 51.3568 88.4065 51.2901 88.4746C51.2228 88.5435 51.1423 88.5768 51.0466 88.5768H48.4118C48.3167 88.5768 48.2353 88.5435 48.1685 88.4746C48.1013 88.4065 48.0681 88.3232 48.0681 88.2252V68.4237C48.0681 68.3261 48.1013 68.2429 48.1685 68.1751C48.2353 68.1069 48.3167 68.0726 48.4118 68.0726H56.2866C57.4517 68.0726 58.4815 68.3215 59.3801 68.8185C60.2765 69.3166 60.9728 70.0198 61.4706 70.9281C61.9659 71.8362 62.2151 72.876 62.2151 74.0474C62.2151 75.3955 61.8759 76.5421 61.1977 77.4896C60.5198 78.4371 59.5808 79.0966 58.3771 79.467C58.3389 79.467 58.3104 79.4864 58.2921 79.5254C58.2723 79.5651 58.2723 79.604 58.2921 79.6422L62.3292 88.167C62.3673 88.2454 62.3863 88.3038 62.3863 88.3421C62.3863 88.4997 62.2812 88.5768 62.072 88.5768H59.3219C59.1309 88.5768 58.9978 88.4889 58.9209 88.3138ZM51.3903 71.1475V76.9771C51.3903 77.075 51.4383 77.1239 51.534 77.1239H55.8288C56.746 77.1239 57.4845 76.8448 58.0485 76.288C58.6108 75.7316 58.8934 74.9949 58.8934 74.0771C58.8934 73.1593 58.6108 72.417 58.0485 71.8508C57.4845 71.2846 56.746 71.0008 55.8288 71.0008H51.534C51.4383 71.0008 51.3903 71.0497 51.3903 71.1475Z" fill="white"></path><path fill-rule="evenodd" clip-rule="evenodd" d="M72.867 74.8239C73.7671 75.2226 74.4608 75.7721 74.9497 76.4713C75.4364 77.1693 75.6817 77.964 75.6817 78.8537V88.0314C75.6817 88.1221 75.6485 88.1995 75.5835 88.263C75.5169 88.3273 75.4364 88.3583 75.3438 88.3583H72.7544C72.6593 88.3583 72.5803 88.3273 72.5152 88.263C72.4487 88.1995 72.4167 88.1221 72.4167 88.0314V87.1603C72.4167 87.106 72.397 87.0739 72.3604 87.0653C72.3228 87.0561 72.285 87.0696 72.2474 87.106C71.3274 88.0857 69.9955 88.5768 68.2515 88.5768C66.8435 88.5768 65.6843 88.2319 64.7739 87.5417C63.8639 86.8513 63.4089 85.8251 63.4089 84.4641C63.4089 83.0481 63.921 81.9444 64.9436 81.1554C65.9661 80.3657 67.406 79.971 69.2637 79.971H72.2755C72.3695 79.971 72.4167 79.9253 72.4167 79.8348V79.181C72.4167 78.4725 72.1999 77.9243 71.7694 77.5331C71.3365 77.1431 70.6893 76.9479 69.8272 76.9479C69.1136 76.9479 68.5364 77.0696 68.0954 77.3146C67.6545 77.5605 67.3785 77.901 67.265 78.3364C67.2089 78.5547 67.0773 78.6454 66.8711 78.609L64.1407 78.2821C64.0465 78.2642 63.968 78.2323 63.9028 78.1868C63.8359 78.1413 63.8128 78.0826 63.8314 78.0095C63.9815 76.9025 64.5952 75.994 65.6752 75.2869C66.7539 74.5788 68.1104 74.2239 69.7428 74.2239C70.9246 74.2239 71.9665 74.4248 72.867 74.8239ZM71.4315 85.3629C72.0877 84.8908 72.4167 84.2913 72.4167 83.5659V82.2858C72.4167 82.1948 72.3695 82.1493 72.2755 82.1493H69.9109C68.9165 82.1493 68.133 82.3313 67.5604 82.6936C66.9877 83.0569 66.703 83.5745 66.703 84.2458C66.703 84.8277 66.9227 85.2767 67.3636 85.5945C67.8043 85.9113 68.3722 86.0709 69.0666 86.0709C69.9864 86.0709 70.7743 85.8352 71.4315 85.3629Z" fill="white"></path><path fill-rule="evenodd" clip-rule="evenodd" d="M79.3254 70.6803C78.9413 70.2827 78.75 69.7764 78.75 69.161C78.75 68.5467 78.9413 68.04 79.3254 67.6428C79.71 67.2466 80.1997 67.0477 80.7955 67.0477C81.39 67.0477 81.8796 67.2466 82.2637 67.6428C82.6484 68.04 82.8409 68.5467 82.8409 69.161C82.8409 69.7764 82.6484 70.2827 82.2637 70.6803C81.8796 71.0775 81.39 71.2756 80.7955 71.2756C80.1997 71.2756 79.71 71.0775 79.3254 70.6803ZM79.1672 88.4729C79.1005 88.4034 79.0662 88.3188 79.0662 88.2196V73.6876C79.0662 73.5886 79.1005 73.505 79.1672 73.4345C79.2342 73.3658 79.3161 73.3303 79.412 73.3303H82.0624C82.1587 73.3303 82.2397 73.3658 82.3072 73.4345C82.3744 73.505 82.4082 73.5886 82.4082 73.6876V88.2196C82.4082 88.3188 82.3744 88.4034 82.3072 88.4729C82.2397 88.5432 82.1587 88.5771 82.0624 88.5771H79.412C79.3161 88.5771 79.2342 88.5432 79.1672 88.4729Z" fill="white"></path><path fill-rule="evenodd" clip-rule="evenodd" d="M86.0325 88.4741C85.9499 88.406 85.9089 88.3225 85.9089 88.225V68.4242C85.9089 68.3263 85.9499 68.2429 86.0325 68.1752C86.1146 68.1074 86.2134 68.0726 86.3322 68.0726H89.5766C89.6927 68.0726 89.793 68.1074 89.8765 68.1752C89.9585 68.2429 89.9998 68.3263 89.9998 68.4242V88.225C89.9998 88.3225 89.9585 88.406 89.8765 88.4741C89.793 88.5433 89.6927 88.5768 89.5766 88.5768H86.3322C86.2134 88.5768 86.1146 88.5433 86.0325 88.4741Z" fill="white"></path><path fill-rule="evenodd" clip-rule="evenodd" d="M19.2416 62.1059H29.1135C30.7733 62.1059 32.1177 60.7606 32.1177 59.1015V49.2285C32.1177 47.5694 30.7733 46.2236 29.1135 46.2236H19.2416C17.5808 46.2236 16.2354 47.5694 16.2354 49.2285V59.1015C16.2354 60.7606 17.5808 62.1059 19.2416 62.1059Z" fill="#049474"></path><path fill-rule="evenodd" clip-rule="evenodd" d="M41.2986 40.2237H51.1705C52.831 40.2237 54.1768 38.8784 54.1768 37.2195V27.3471C54.1768 25.6865 52.831 24.3413 51.1705 24.3413H41.2986C39.6397 24.3413 38.2944 25.6865 38.2944 27.3471V37.2195C38.2944 38.8784 39.6397 40.2237 41.2986 40.2237Z" fill="#FCC200"></path><path fill-rule="evenodd" clip-rule="evenodd" d="M19.2416 40.2237H29.1135C30.7733 40.2237 32.1177 38.8784 32.1177 37.2195V27.3471C32.1177 25.6865 30.7733 24.3413 29.1135 24.3413H19.2416C17.5808 24.3413 16.2354 25.6865 16.2354 27.3471V37.2195C16.2354 38.8784 17.5808 40.2237 19.2416 40.2237Z" fill="#049474"></path><mask id="mask0_47_767" style="mask-type:luminance" maskUnits="userSpaceOnUse" x="16" y="2" width="17" height="16"><path d="M16.4219 2.00012H32.2701V17.8481H16.4219V2.00012Z" fill="#049474"></path></mask><g mask="url(#mask0_47_767)"><path fill-rule="evenodd" clip-rule="evenodd" d="M19.4201 17.8481H29.2713C30.9275 17.8481 32.2701 16.5056 32.2701 14.8499V4.99871C32.2701 3.34304 30.9275 1.99994 29.2713 1.99994H19.4201C17.7644 1.99994 16.4219 3.34304 16.4219 4.99871V14.8499C16.4219 16.5056 17.7644 17.8481 19.4201 17.8481Z" fill="#049474"></path></g><path fill-rule="evenodd" clip-rule="evenodd" d="M41.2986 62.1059H51.1705C52.831 62.1059 54.1768 60.7608 54.1768 59.102V49.2275C54.1768 47.5687 52.831 46.2236 51.1705 46.2236H41.2986C39.6397 46.2236 38.2944 47.5687 38.2944 49.2275V59.102C38.2944 60.7608 39.6397 62.1059 41.2986 62.1059Z" fill="#049474"></path><mask id="mask1_47_767" style="mask-type:luminance" maskUnits="userSpaceOnUse" x="60" y="46" width="17" height="17"><path d="M60.668 46.2917H76.5159V62.2825H60.668V46.2917Z" fill="#E4006D"></path></mask><g mask="url(#mask1_47_767)"><path fill-rule="evenodd" clip-rule="evenodd" d="M63.6678 62.2825H73.519C75.1747 62.2825 76.5162 60.9282 76.5162 59.2581V49.3161C76.5162 47.646 75.1747 46.2917 73.519 46.2917H63.6678C62.0105 46.2917 60.668 47.646 60.668 49.3161V59.2581C60.668 60.9282 62.0105 62.2825 63.6678 62.2825Z" fill="#E4006D"></path></g></svg> 