<?xml version="1.0" encoding="UTF-8"?> <svg xmlns="http://www.w3.org/2000/svg" width="90" height="90" viewBox="0 0 90 90" fill="none"><g clip-path="url(#clip0_58_639)"><path d="M89.632 50.714C92.7814 26.0584 75.3695 3.51748 50.759 0.368044C26.1484 -2.78139 3.51748 14.6305 0.368044 39.241C-2.78139 63.8516 14.6305 86.4375 39.241 89.632C63.8966 92.7814 86.4375 75.3695 89.632 50.714Z" fill="#FF6C37"></path><path d="M61.2421 28.8929L42.2555 47.8795L36.9015 42.5254C55.5731 23.8538 57.4178 25.4735 61.2421 28.8929Z" fill="white"></path><path d="M42.2556 48.3294C42.1206 48.3294 42.0306 48.2844 41.9406 48.1944L36.5416 42.8404C36.3616 42.6604 36.3616 42.3905 36.5416 42.2105C55.5282 23.2239 57.5078 25.0236 61.5121 28.6229C61.6021 28.7129 61.6471 28.8029 61.6471 28.9379C61.6471 29.0729 61.6021 29.1628 61.5121 29.2528L42.5255 48.1944C42.4805 48.2844 42.3455 48.3294 42.2556 48.3294ZM37.5314 42.5254L42.2556 47.2496L60.5673 28.9379C57.2379 25.9684 54.9883 25.0686 37.5314 42.5254Z" fill="#FF6C37"></path><path d="M47.6996 53.3235L42.5255 48.1494L61.5121 29.1628C66.5962 34.2919 58.9925 42.6154 47.6996 53.3235Z" fill="white"></path><path d="M47.6995 53.7734C47.5645 53.7734 47.4745 53.7284 47.3845 53.6385L42.2105 48.4644C42.1205 48.3744 42.1205 48.2844 42.1205 48.1494C42.1205 48.0145 42.1655 47.9245 42.2555 47.8345L61.242 28.8479C61.422 28.668 61.692 28.668 61.8719 28.8479C63.0417 29.9277 63.6716 31.4575 63.6266 33.0322C63.5366 38.0263 57.8676 44.3701 48.0594 53.6385C47.9244 53.7284 47.7895 53.7734 47.6995 53.7734ZM43.1553 48.1494C46.0348 51.0739 47.2496 52.2437 47.6995 52.6936C55.2581 45.4949 62.5918 38.1163 62.6368 33.0322C62.6818 31.8624 62.2319 30.6926 61.467 29.7928L43.1553 48.1494Z" fill="#FF6C37"></path><path d="M36.9915 42.6604L40.8158 46.4847C40.9058 46.5747 40.9058 46.6647 40.8158 46.7547C40.7708 46.7997 40.7708 46.7997 40.7258 46.7997L32.8072 48.5094C32.4023 48.5544 32.0424 48.2844 31.9524 47.8795C31.9074 47.6545 31.9974 47.4296 32.1323 47.2946L36.7215 42.7054C36.8115 42.6154 36.9465 42.5705 36.9915 42.6604Z" fill="white"></path><path d="M32.6722 48.9593C31.9974 48.9593 31.5024 48.4194 31.5024 47.7445C31.5024 47.4296 31.6374 47.1146 31.8624 46.8897L36.4516 42.3005C36.7215 42.0755 37.0814 42.0755 37.3514 42.3005L41.1757 46.1248C41.4456 46.3498 41.4456 46.7547 41.1757 47.0246C41.0857 47.1146 40.9957 47.1596 40.8608 47.2046L32.9422 48.9143C32.8522 48.9143 32.7622 48.9593 32.6722 48.9593ZM36.8565 43.1553L32.4473 47.5645C32.3573 47.6545 32.3123 47.7895 32.4023 47.9245C32.4473 48.0595 32.5822 48.1044 32.7172 48.0595L40.1409 46.4397L36.8565 43.1553Z" fill="#FF6C37"></path><path d="M71.2752 18.3648C68.3957 15.5753 63.7616 15.6653 60.9721 18.5898C58.1826 21.5143 58.2726 26.1034 61.197 28.8929C63.5816 31.1875 67.181 31.5924 70.0154 29.8828L64.8864 24.7537L71.2752 18.3648Z" fill="white"></path><path d="M66.2362 31.3675C61.9619 31.3675 58.4976 27.9031 58.4976 23.6289C58.4976 19.3546 61.9619 15.8903 66.2362 15.8903C68.2158 15.8903 70.1505 16.6551 71.5902 18.0499C71.6802 18.1399 71.7252 18.2298 71.7252 18.3648C71.7252 18.4998 71.6802 18.5898 71.5902 18.6798L65.5163 24.7537L70.2854 29.5228C70.4654 29.7028 70.4654 29.9727 70.2854 30.1527C70.2404 30.1977 70.2404 30.1977 70.1954 30.2427C69.0257 30.9625 67.6309 31.3675 66.2362 31.3675ZM66.2362 16.8351C62.4568 16.8351 59.3974 19.8945 59.4424 23.6739C59.4424 27.4532 62.5018 30.5126 66.2812 30.4676C67.316 30.4676 68.3508 30.2427 69.2956 29.7478L64.5715 25.0686C64.4815 24.9786 64.4365 24.8886 64.4365 24.7537C64.4365 24.6187 64.4815 24.5287 64.5715 24.4387L70.6004 18.4098C69.3856 17.375 67.8559 16.8351 66.2362 16.8351Z" fill="#FF6C37"></path><path d="M71.4103 18.4998L71.3203 18.4098L64.8865 24.7536L69.9706 29.8377C70.4655 29.5228 70.9604 29.1629 71.3653 28.7579C74.2448 25.9234 74.2448 21.3343 71.4103 18.4998Z" fill="white"></path><path d="M70.0155 30.3327C69.8805 30.3327 69.7906 30.2877 69.7006 30.1977L64.5715 25.0686C64.4815 24.9786 64.4365 24.8887 64.4365 24.7537C64.4365 24.6187 64.4815 24.5287 64.5715 24.4387L70.9603 18.0499C71.1403 17.8699 71.4103 17.8699 71.5902 18.0499L71.7252 18.1399C74.7397 21.1543 74.7397 26.0135 71.7702 29.0729C71.3203 29.5228 70.8254 29.9278 70.2855 30.2427C70.1505 30.2877 70.0605 30.3327 70.0155 30.3327ZM65.5163 24.7537L70.0605 29.2979C70.4204 29.0729 70.7804 28.758 71.0503 28.488C73.6149 25.9235 73.7498 21.7392 71.2753 19.0397L65.5163 24.7537Z" fill="#FF6C37"></path><path d="M62.007 29.7028C60.9272 28.623 59.1725 28.623 58.0927 29.7028L41.1307 46.6647L43.9652 49.4992L61.917 33.7521C63.0868 32.7622 63.1768 31.0076 62.1869 29.8378C62.097 29.7928 62.052 29.7478 62.007 29.7028Z" fill="white"></path><path d="M43.9202 49.9491C43.7852 49.9491 43.6952 49.9041 43.6052 49.8141L40.7707 46.9797C40.5908 46.7997 40.5908 46.5297 40.7707 46.3498L57.7327 29.3878C58.9924 28.128 61.0171 28.128 62.2768 29.3878C63.5366 30.6476 63.5366 32.6722 62.2768 33.932C62.2319 33.977 62.1869 34.022 62.1419 34.067L44.1901 49.8141C44.1451 49.9041 44.0551 49.9491 43.9202 49.9491ZM41.7605 46.6647L43.9651 48.8693L61.602 33.3921C62.5918 32.5822 62.6818 31.0975 61.8719 30.1077C61.0621 29.1179 59.5773 29.0279 58.5875 29.8377C58.5425 29.8827 58.4975 29.9277 58.4075 29.9727L41.7605 46.6647Z" fill="#FF6C37"></path><path d="M28.1281 65.9662C27.9481 66.0562 27.8581 66.2362 27.9031 66.4162L28.668 69.6556C28.848 70.1055 28.578 70.6454 28.0831 70.7804C27.7232 70.9154 27.3182 70.7804 27.0933 70.5104L22.1442 65.6063L38.2963 49.4542L43.8752 49.5442L47.6546 53.3235C46.7547 54.0884 41.3107 59.3524 28.1281 65.9662Z" fill="white"></path><path d="M27.7681 71.2303C27.4082 71.2303 27.0482 71.0953 26.8233 70.8253L21.9192 65.9212C21.8292 65.8312 21.7842 65.7413 21.7842 65.6063C21.7842 65.4713 21.8292 65.3813 21.9192 65.2913L38.0712 49.1392C38.1612 49.0493 38.2962 49.0043 38.3862 49.0043L43.9652 49.0943C44.1002 49.0943 44.1901 49.1392 44.2801 49.2292L48.0594 53.0086C48.1494 53.0985 48.1944 53.2335 48.1944 53.3685C48.1944 53.5035 48.1494 53.5934 48.0145 53.6834L47.6995 53.9534C42.9304 58.1376 36.4515 62.3219 28.398 66.3261L29.1628 69.5206C29.2978 70.1055 29.0279 70.7354 28.488 71.0503C28.218 71.1853 27.9931 71.2303 27.7681 71.2303ZM22.819 65.6063L27.4532 70.1955C27.5881 70.4204 27.8581 70.5104 28.083 70.3754C28.308 70.2404 28.398 69.9705 28.263 69.7455L27.4981 66.5061C27.4082 66.1012 27.5881 65.7413 27.9481 65.5613C35.9116 61.557 42.3455 57.4178 47.0696 53.3235L43.7402 49.9941L38.5662 49.9041L22.819 65.6063Z" fill="#FF6C37"></path><path d="M18.3199 69.4756L22.1892 65.6063L27.9481 71.3653L18.7698 70.7354C18.3649 70.6904 18.0949 70.3305 18.1399 69.9255C18.1399 69.7456 18.1849 69.5656 18.3199 69.4756Z" fill="white"></path><path d="M27.9481 71.7702L18.7247 71.1403C18.0499 71.0953 17.5999 70.5104 17.6449 69.8355C17.6899 69.5656 17.7799 69.2956 18.0049 69.1157L21.8742 65.2464C22.0541 65.0664 22.3241 65.0664 22.5041 65.2464L28.263 71.0053C28.398 71.1403 28.443 71.3203 28.353 71.5002C28.263 71.6802 28.128 71.7702 27.9481 71.7702ZM22.1891 66.2362L18.6348 69.7905C18.4998 69.8805 18.4998 70.1055 18.6348 70.1955C18.6798 70.2405 18.7247 70.2855 18.8147 70.2855L26.7783 70.8254L22.1891 66.2362Z" fill="#FF6C37"></path><path d="M36.7215 51.5238C36.4516 51.5238 36.2716 51.2989 36.2716 51.0739C36.2716 50.9389 36.3166 50.8489 36.4066 50.759L40.7708 46.3947C40.9508 46.2148 41.2207 46.2148 41.4007 46.3947L44.2352 49.2292C44.3701 49.3642 44.4151 49.4992 44.3701 49.6791C44.3252 49.8141 44.1902 49.9491 44.0102 49.9941L36.8115 51.5238C36.7665 51.5238 36.7215 51.5238 36.7215 51.5238ZM41.0857 47.3396L38.1163 50.309L42.9754 49.2742L41.0857 47.3396Z" fill="#FF6C37"></path><path d="M43.8752 49.5442L38.9261 50.624C38.5661 50.714 38.2062 50.489 38.1162 50.1291C38.0712 49.9041 38.1162 49.6792 38.2962 49.4992L41.0407 46.7547L43.8752 49.5442Z" fill="white"></path><path d="M38.8361 51.0739C38.2062 51.0739 37.7113 50.579 37.7113 49.9491C37.7113 49.6342 37.8463 49.3642 38.0262 49.1392L40.7708 46.3947C40.9507 46.2148 41.2207 46.2148 41.4006 46.3947L44.2351 49.2292C44.3701 49.3642 44.4151 49.4992 44.3701 49.6791C44.3251 49.8141 44.1901 49.9491 44.0102 49.9941L39.0611 51.0739C38.9711 51.0739 38.8811 51.0739 38.8361 51.0739ZM41.0857 47.3396L38.6561 49.7691C38.5661 49.8591 38.5661 49.9491 38.6111 50.0391C38.6561 50.1291 38.7461 50.1741 38.8811 50.1741L43.0203 49.2742L41.0857 47.3396Z" fill="#FF6C37"></path><path d="M71.4552 22.819C71.3652 22.5491 71.0503 22.4141 70.7803 22.5041C70.5104 22.5941 70.3754 22.909 70.4654 23.179C70.4654 23.224 70.5104 23.2689 70.5104 23.3139C70.7803 23.8538 70.6903 24.5287 70.3304 25.0236C70.1504 25.2486 70.1954 25.5635 70.3754 25.7435C70.6003 25.9235 70.9153 25.8785 71.0952 25.6535C71.7701 24.7987 71.9051 23.7189 71.4552 22.819Z" fill="#FF6C37"></path></g><defs><clipPath id="clip0_58_639"><rect width="90" height="90" fill="white"></rect></clipPath></defs></svg> 