<?xml version="1.0" encoding="UTF-8"?> <svg xmlns="http://www.w3.org/2000/svg" width="90" height="90" viewBox="0 0 90 90" fill="none"><path d="M19.6363 6.68145L45 4L70.3636 6.68145L89.9999 33.0415L45 85.4435L0 33.0415L19.6363 6.68145Z" fill="#FDB300"></path><path d="M18.2272 33.0415L45 85.4435L0 33.0415H18.2272Z" fill="#EA6C00"></path><path d="M71.7728 33.0414L45 85.4434L90 33.0414H71.7728Z" fill="#EA6C00"></path><path d="M18.2273 33.0414H71.7728L45.0001 85.4434L18.2273 33.0414Z" fill="#FDAD00"></path><path d="M45.0001 4L19.6363 6.68142L18.2273 33.0415L45.0001 4Z" fill="#FDD231"></path><path d="M44.9999 4L70.3637 6.68142L71.7727 33.0415L44.9999 4Z" fill="#FDD231"></path><path d="M90 33.0415L70.3635 6.6814L71.7728 33.0415H90Z" fill="#FDAD00"></path><path d="M0 33.0415L19.6363 6.6814L18.2272 33.0415H0Z" fill="#FDAD00"></path><path d="M45.0001 4L18.2273 33.0415H71.7728L45.0001 4Z" fill="#FEEEB7"></path></svg> 