<?xml version="1.0" encoding="UTF-8"?> <svg xmlns="http://www.w3.org/2000/svg" width="90" height="90" viewBox="0 0 90 90" fill="none"><g clip-path="url(#clip0_58_637)"><path d="M90 39.9986H63.6814L86.4771 26.8393L81.4693 18.1607L58.68 31.3264L71.8329 8.53071L63.1607 3.52286L50.0143 26.3121V0H39.9857V26.3186L26.8329 3.52286L18.1671 8.53071L31.32 31.32L8.53071 18.1671L3.52286 26.8329L26.3186 39.9921H0V50.0014H26.3121L3.52286 63.1607L8.53071 71.8393L31.32 58.68L18.1607 81.4693L26.8393 86.4771L39.9921 63.6814V90H50.0014V63.6814L63.1607 86.4771L71.8329 81.4693L58.6736 58.6736L81.4629 71.8329L86.4707 63.1607L63.6814 50.0079H89.9936L90 39.9986ZM45 58.6157C41.3752 58.6157 37.899 57.1758 35.3359 54.6127C32.7728 52.0496 31.3329 48.5733 31.3329 44.9486C31.3329 41.3238 32.7728 37.8475 35.3359 35.2844C37.899 32.7214 41.3752 31.2814 45 31.2814C48.6248 31.2814 52.101 32.7214 54.6641 35.2844C57.2272 37.8475 58.6671 41.3238 58.6671 44.9486C58.6671 48.5733 57.2272 52.0496 54.6641 54.6127C52.101 57.1758 48.6248 58.6157 45 58.6157Z" fill="#625DF5"></path></g><defs><clipPath id="clip0_58_637"><rect width="90" height="90" fill="white"></rect></clipPath></defs></svg> 